<svg xmlns="http://www.w3.org/2000/svg" width="25" height="24" fill="none"><path fill="#fff" d="M19.25 2.25h-12a1.5 1.5 0 0 0-1.5 1.5V6h-1.5a1.5 1.5 0 0 0-1.5 1.5v9a1.5 1.5 0 0 0 1.5 1.5h1.5v2.25a1.5 1.5 0 0 0 1.5 1.5h12a1.5 1.5 0 0 0 1.5-1.5V3.75a1.5 1.5 0 0 0-1.5-1.5Zm-3.75 7.5h3.75v4.5H15.5v-4.5Zm3.75-1.5H15.5V7.5A1.5 1.5 0 0 0 14 6V3.75h5.25v4.5Zm-12-4.5h5.25V6H7.25V3.75Zm-3 3.75H14v9H4.25v-9Zm3 10.5h5.25v2.25H7.25V18ZM14 20.25V18a1.5 1.5 0 0 0 1.5-1.5v-.75h3.75v4.5H14Zm-7.327-6.48L8.15 12l-1.476-1.77a.75.75 0 1 1 1.154-.96l1.298 1.558 1.298-1.558a.751.751 0 0 1 1.154.96L10.1 12l1.476 1.77a.75.75 0 0 1-1.154.96l-1.298-1.558-1.298 1.558a.75.75 0 0 1-1.154-.96Z"/></svg>