<svg xmlns="http://www.w3.org/2000/svg" width="24" height="24" fill="none"><path fill="#2C2A29" d="M20.125 6.75H18.75v-3A.75.75 0 0 0 18 3H6a.75.75 0 0 0-.75.75v3H3.875C2.565 6.75 1.5 7.76 1.5 9v7.5a.75.75 0 0 0 .75.75h3v3A.75.75 0 0 0 6 21h12a.75.75 0 0 0 .75-.75v-3h3a.75.75 0 0 0 .75-.75V9c0-1.24-1.065-2.25-2.375-2.25ZM6.75 4.5h10.5v2.25H6.75V4.5Zm10.5 15H6.75V15h10.5v4.5ZM21 15.75h-2.25v-1.5a.75.75 0 0 0-.75-.75H6a.75.75 0 0 0-.75.75v1.5H3V9c0-.413.393-.75.875-.75h16.25c.482 0 .875.337.875.75v6.75Zm-2.25-4.875a1.125 1.125 0 1 1-2.25 0 1.125 1.125 0 0 1 2.25 0Z"/></svg>