<svg width="24" height="24" viewBox="0 0 24 24" fill="none" xmlns="http://www.w3.org/2000/svg">
<path d="M22.7944 12.3319L19.7944 4.83188C19.6952 4.58444 19.5113 4.38028 19.2755 4.2558C19.0398 4.13132 18.7675 4.0946 18.5072 4.15219L13.125 5.34375V3.75C13.125 3.45163 13.0065 3.16548 12.7955 2.9545C12.5845 2.74353 12.2984 2.625 12 2.625C11.7017 2.625 11.4155 2.74353 11.2045 2.9545C10.9936 3.16548 10.875 3.45163 10.875 3.75V5.84719L5.00627 7.15219C4.8276 7.19181 4.6613 7.27443 4.52178 7.39287C4.38226 7.51131 4.27375 7.66201 4.20565 7.83187L1.20565 15.3244C1.15145 15.4597 1.12407 15.6042 1.12502 15.75C1.12502 16.8872 1.70627 17.8528 2.76096 18.4688C3.52183 18.8944 4.3782 19.1202 5.25002 19.125C6.12185 19.1202 6.97822 18.8944 7.73909 18.4688C8.79377 17.8528 9.37502 16.8872 9.37502 15.75C9.37501 15.6068 9.34765 15.4648 9.2944 15.3319L6.78565 9.06094L10.875 8.15625V19.125H9.75002C9.45166 19.125 9.16551 19.2435 8.95453 19.4545C8.74355 19.6655 8.62502 19.9516 8.62502 20.25C8.62502 20.5484 8.74355 20.8345 8.95453 21.0455C9.16551 21.2565 9.45166 21.375 9.75002 21.375H14.25C14.5484 21.375 14.8345 21.2565 15.0455 21.0455C15.2565 20.8345 15.375 20.5484 15.375 20.25C15.375 19.9516 15.2565 19.6655 15.0455 19.4545C14.8345 19.2435 14.5484 19.125 14.25 19.125H13.125V7.65281L16.9144 6.80906L14.7056 12.3309C14.6523 12.4642 14.6249 12.6064 14.625 12.75C14.625 13.8872 15.2063 14.8528 16.261 15.4688C17.0198 15.8995 17.8774 16.126 18.75 16.126C19.6226 16.126 20.4803 15.8995 21.2391 15.4688C22.2938 14.8528 22.875 13.8872 22.875 12.75C22.875 12.6068 22.8476 12.4648 22.7944 12.3319ZM5.25002 16.875C4.90221 16.875 3.56252 16.6997 3.39284 15.9206L5.25002 11.2791L7.10721 15.9206C6.93752 16.6997 5.59784 16.875 5.25002 16.875ZM18.75 13.875C18.4022 13.875 17.0625 13.6997 16.8928 12.9206L18.75 8.27906L20.6072 12.9206C20.4375 13.6997 19.0978 13.875 18.75 13.875Z" fill="black"/>
</svg>
