<svg xmlns="http://www.w3.org/2000/svg" width="113" height="66" fill="none"><path fill="#00BE64" fill-opacity=".1" d="M80.063 0a5.281 5.281 0 0 0-5.276 5.286 5.281 5.281 0 0 0 5.276 5.287h14.832l-31.41 31.155-19.572-19.413a5.269 5.269 0 0 0-7.423 0L1.564 56.957a5.294 5.294 0 0 0-.037 7.476 5.269 5.269 0 0 0 7.461.037l31.214-30.96 19.571 19.413a5.269 5.269 0 0 0 7.424 0l35.251-34.965v14.788a5.281 5.281 0 0 0 5.276 5.286A5.281 5.281 0 0 0 113 32.746V5.316M113 5.286a5.257 5.257 0 0 0-1.527-3.72 5.244 5.244 0 0 0-3.749-1.566H80.063"/></svg>